REM MD5 7dd150cbb490e3f73d28a56cbdb08c30
FILE "Jonah Lomu Rugby (France).bin" BINARY
  TRACK 01 MODE2/2352
    INDEX 01 00:00:00
  TRACK 02 AUDIO
    INDEX 00 17:58:16
    INDEX 01 18:00:16
  TRACK 03 AUDIO
    INDEX 00 21:57:20
    INDEX 01 21:59:20
  TRACK 04 AUDIO
    INDEX 00 23:39:43
    INDEX 01 23:41:43
REM LEADOUT 26:44:33
